<?xml version="1.0" encoding="iso-8859-1"?>
<!-- Generator: Adobe Illustrator 19.0.0, SVG Export Plug-In . SVG Version: 6.00 Build 0)  -->
<svg version="1.1" id="Capa_1" xmlns="http://www.w3.org/2000/svg" xmlns:xlink="http://www.w3.org/1999/xlink" x="0px" y="0px"
	 viewBox="0 0 512 512" style="enable-background:new 0 0 512 512;" xml:space="preserve">
<g>
	<g>
		<path d="M418.535,201.685c-34.619-34.619-78.341-56.819-125.766-64.4c1.124-3.611,1.73-7.448,1.73-11.424
			c0-21.229-17.271-38.5-38.5-38.5s-38.5,17.271-38.5,38.5c0,3.976,0.606,7.813,1.73,11.424
			c-47.424,7.581-91.146,29.781-125.765,64.4C58.9,236.25,36.715,279.888,29.101,327.227H482.9
			C475.285,279.888,453.1,236.25,418.535,201.685z"/>
	</g>
</g>
<g>
	<g>
		<polygon points="0,357.227 0,387.227 34.888,387.227 51.375,424.638 460.625,424.638 477.112,387.227 512,387.227 512,357.227 		
			"/>
	</g>
</g>
<g>
</g>
<g>
</g>
<g>
</g>
<g>
</g>
<g>
</g>
<g>
</g>
<g>
</g>
<g>
</g>
<g>
</g>
<g>
</g>
<g>
</g>
<g>
</g>
<g>
</g>
<g>
</g>
<g>
</g>
</svg>
